# xmcd
#
# Track frame offsets: 
#        150
#        13328
#        24496
#        34522
#        45542
#        57918
#        69455
#        79446
#        93691
#        105089
#        119518
#        132277
#        144634
#        158912
#        170934
#        182318
#        193490
#        205015
#        215375
#        228365
#        241175
#        254102
#        266643
#        278853
#        292363
#        302716
#        314435
#        327155
#        337172
#
# Disc length: 4652 seconds
#
# Revision: 1
# Processed by: cddbd v1.5.2PL0 Copyright (c) Steve Scherf et al.
# Submitted via: ExactAudioCopyFreeDBPlugin 1.0
#
DISCID=c1122a1d
DTITLE=Various Artist - Jamaica Selects Jump Blues Strictly For You: 
DTITLE=Jamaican Sound System Classics, 1944-1960
DYEAR=2012
DGENRE=Rhythm and Blues
TTITLE0=Oscar McLollie - The Honey Jump
TTITLE1=James Waynes - Please Baby Please
TTITLE2=Chuck Higgins - Motor Head Baby
TTITLE3=Oscar McLollie - All That Oil in Texas
TTITLE4=Jimmy McCracklin - What's Your Phone Number
TTITLE5=Rosco Gordon - New Orleans Wimmen
TTITLE6=Fats Domino - Goin' Home
TTITLE7=Rosco Gordon - Booted
TTITLE8=Lloyd Glenn - Cuba Doll
TTITLE9=Ruth Brown - 5-10-15 Hours
TTITLE10=Jack Dupree - Ain't No Meat on De Bone
TTITLE11=Kenny Graham's Afro Cubists - Bongo Chant
TTITLE12=Chuck Willis - You're Still My Baby
TTITLE13=The Hawks - I-Yi
TTITLE14=Fats Domino - Going to the River
TTITLE15=Guitar Slim - Well, I Done Got Over It
TTITLE16=George Green - Brand New Rockin' Chair
TTITLE17=The Charms - Bye Bye Baby
TTITLE18=Harold Burrage - Way Down Boogie
TTITLE19=Johnny Perry's Orchestra - Got Good News for Ya, Baby
TTITLE20=Marvin and Johnny - Tick Tock
TTITLE21=Tommy Ridgley - Jam Up
TTITLE22=Louis Jordan - Messy Bessy
TTITLE23=Earl Curry - I Want Your Lovin'
TTITLE24=Slim Saunders - Let's Have Some Fun Honey
TTITLE25=The Rocking Brothers - Play Boy Hop
TTITLE26=Floyd Dixon - Moonshine
TTITLE27=Mike Gordon - You Got to Give
TTITLE28=Georgie Stevenson - Meet Me at Grandma's Joint
EXTD=
EXTT0=
EXTT1=
EXTT2=
EXTT3=
EXTT4=
EXTT5=
EXTT6=
EXTT7=
EXTT8=
EXTT9=
EXTT10=
EXTT11=
EXTT12=
EXTT13=
EXTT14=
EXTT15=
EXTT16=
EXTT17=
EXTT18=
EXTT19=
EXTT20=
EXTT21=
EXTT22=
EXTT23=
EXTT24=
EXTT25=
EXTT26=
EXTT27=
EXTT28=
PLAYORDER=
